<svg width="2678" height="2009" viewBox="0 0 2678 2009" fill="none" xmlns="http://www.w3.org/2000/svg">
<path fill-rule="evenodd" clip-rule="evenodd" d="M858.556 279.305C1074.84 151.122 1277.21 -1.1192 1528.59 1.03572C1790.77 3.28317 2032 116.226 2227.36 291.04C2449.95 490.213 2659.79 729.038 2675.52 1027.34C2692.56 1350.68 2584.67 1714.05 2311.54 1888.04C2155.87 1987.2 1945.86 1938.22 1754.5 1919.81C1572.02 1902.25 1406.36 1927.32 1287.45 1942.31C980.5 1981 734.228 2088.08 446.324 1899.65C129.748 1692.45 -69.3482 1259.51 23.9519 892.783C112.443 544.956 549.78 462.306 858.556 279.305Z" fill="url(#paint0_linear_14703_87)" fill-opacity="0.2" stroke="#613232"/>
<defs>
<linearGradient id="paint0_linear_14703_87" x1="1239.2" y1="2052.97" x2="1102.4" y2="445.346" gradientUnits="userSpaceOnUse">
<stop offset="0.334676" stop-color="#2B7FFF"/>
<stop offset="0.634564" stop-color="#2B7FFF" stop-opacity="0"/>
<stop offset="0.894715" stop-color="#2B7FFF" stop-opacity="0"/>
</linearGradient>
</defs>
</svg>
