<svg xmlns="http://www.w3.org/2000/svg" aria-hidden="true" overflow="hidden" style="position:absolute;width:0;height:0">
  <defs>
    <symbol id="icon-Arrow" viewBox="0 0 32 32">
      <path d="M.944 17.257a1.778 1.778 0 0 1 0-2.514L12.258 3.429a1.778 1.778 0 0 1 2.514 2.514L4.715 16l10.057 10.057a1.778 1.778 0 0 1-2.514 2.514L.944 17.257zM32 17.778H2.201v-3.556H32v3.556z"/>
    </symbol>
    <symbol id="icon-facebook" viewBox="0 0 32 32">
      <path d="M23.987 2.128a37.26 37.26 0 0 0-4.049-.208c-4.484 0-7.271 2.856-7.271 7.453v3.121H8.9a.665.665 0 0 0-.666.666v5.133a.665.665 0 0 0 .666.666h3.767v10.293a.665.665 0 0 0 .666.666h5.304a.665.665 0 0 0 .666-.666V18.959h3.755a.662.662 0 0 0 .661-.58l.663-5.133a.662.662 0 0 0-.386-.694.65.65 0 0 0-.275-.059h-4.417V9.881c0-1.293.26-1.833 1.877-1.833H23.9a.665.665 0 0 0 .666-.666V2.789a.662.662 0 0 0-.58-.661zm-.754 4.587-2.053.001c-2.876 0-3.209 1.808-3.209 3.167v3.28a.665.665 0 0 0 .666.667h4.328l-.492 3.8h-3.835a.665.665 0 0 0-.666.666v10.291h-3.971V18.296a.665.665 0 0 0-.666-.666H9.57v-3.8h3.765a.665.665 0 0 0 .666-.666V9.375c0-3.832 2.22-6.12 5.937-6.12 1.345 0 2.56.073 3.296.137v3.324z"/>
    </symbol>
    <symbol id="icon-stuff" viewBox="0 0 32 32">
      <path d="M9.755 11.589H-.137a.539.539 0 0 0-.55.527v3.164c0 .292.246.527.55.527h.55v12.127c0 .292.246.527.55.527h7.694c.304 0 .55-.236.55-.527V15.807h.55c.304 0 .55-.236.55-.527v-3.164a.538.538 0 0 0-.55-.527zM3.71 21.607v-1.055h3.297v-1.055H3.71v-1.055h4.396v6.854H3.71V22.66h1.099v-1.055H3.71zm4.396-4.218H3.16a.539.539 0 0 0-.55.527v7.909c0 .292.246.527.55.527h4.946v1.055H1.511v-11.6h6.595v1.582zm1.099-2.636H.412v-2.109h8.793v2.109zm7.831-3.065V7.833c0-.3-.246-.543-.55-.543h-.55V4.576h1.099V3.49H10.99v1.086h3.847V7.29h-.55a.546.546 0 0 0-.55.543v3.855c-1.252.252-2.198 1.348-2.198 2.659v13.571c0 .3.246.543.55.543h6.595c.304 0 .55-.243.55-.543V14.347c0-1.31-.946-2.407-2.198-2.659zm-2.198-3.312h1.099v3.257h-1.099V8.376zm-.549 4.343h2.198c.909 0 1.649.731 1.649 1.629v.543H12.64v-.543c0-.898.74-1.629 1.649-1.629zm3.846 12.485h-5.496v-1.086h2.198v-1.086h-2.198v-7.057h5.496v9.228zm-5.495 2.172V26.29h5.496v1.086H12.64zm18.444-16.462H21.81a.523.523 0 0 0-.515.532V27.93c0 .294.23.532.515.532h9.274a.523.523 0 0 0 .515-.532V11.446a.523.523 0 0 0-.515-.532zm-.515 16.484h-8.243v-15.42h8.243v15.42z"/>
      <path d="M7.557 21.712H6.183v.675h1.374v-.675zm9.617 1.35H15.8v1.35h1.374v-1.35zm-1.718-1.35c1.326 0 2.404-1.059 2.404-2.362s-1.078-2.362-2.404-2.362c-1.326 0-2.404 1.059-2.404 2.362s1.078 2.362 2.404 2.362zm0-3.543c.663 0 1.202.53 1.202 1.181s-.539 1.181-1.202 1.181c-.663 0-1.202-.53-1.202-1.181s.539-1.181 1.202-1.181zm9.703-1.856h2.576c.994 0 1.803-.757 1.803-1.687s-.809-1.687-1.803-1.687h-2.576c-.994 0-1.803.757-1.803 1.687s.809 1.687 1.803 1.687zm3.349-1.687c0 .399-.347.723-.773.723h-.773v-1.446h.773c.426 0 .773.324.773.723zm-3.349-.723h.773v1.446h-.773c-.426 0-.773-.324-.773-.723s.347-.723.773-.723zm0 7.809h2.576c.994 0 1.803-.908 1.803-2.025s-.809-2.025-1.803-2.025h-2.576c-.994 0-1.803.908-1.803 2.025s.809 2.025 1.803 2.025zm3.349-2.024c0 .478-.347.868-.773.868h-.773v-1.735h.773c.426 0 .773.389.773.868zm-3.349-.868h.773v1.735h-.773c-.426 0-.773-.389-.773-.868s.347-.868.773-.868zm0 7.617h2.576c.994 0 1.803-.908 1.803-2.025s-.809-2.025-1.803-2.025h-2.576c-.994 0-1.803.908-1.803 2.025s.809 2.025 1.803 2.025zm3.349-2.025c0 .478-.347.868-.773.868h-.773v-1.735h.773c.426 0 .773.389.773.868zm-3.349-.868h.773v1.735h-.773c-.426 0-.773-.389-.773-.868s.347-.868.773-.868z"/>
    </symbol>
    <symbol id="icon-instagram" viewBox="0 0 32 32">
      <path d="M16 10.25a5.746 5.746 0 0 0-5.312 3.55 5.75 5.75 0 1 0 5.313-3.549zm0 10a4.248 4.248 0 0 1-3.005-7.255 4.253 4.253 0 0 1 6.539.644A4.25 4.25 0 0 1 20.25 16 4.265 4.265 0 0 1 16 20.25zm5.5-16.5h-11a6.75 6.75 0 0 0-6.75 6.75v11a6.75 6.75 0 0 0 6.75 6.75h11a6.75 6.75 0 0 0 6.75-6.75v-11a6.75 6.75 0 0 0-6.75-6.75zm5.25 17.75a5.247 5.247 0 0 1-5.25 5.25h-11a5.247 5.247 0 0 1-5.25-5.25v-11a5.247 5.247 0 0 1 5.25-5.25h11a5.247 5.247 0 0 1 5.25 5.25v11zm-3-12a1.243 1.243 0 0 1-.772 1.154 1.249 1.249 0 0 1-1.173-2.194 1.254 1.254 0 0 1 1.579.155c.235.234.366.552.366.884z"/>
    </symbol>
    <symbol id="icon-phone" viewBox="0 0 32 32">
      <path d="m27.655 22.957-.173-.216c-1.372-1.735-2.519-2.637-3.503-2.756-.851-.116-1.673.472-2.548 1.077l-.935.584a2.054 2.054 0 0 1-.327.132c-.547.155-1.927.245-2.708-.469-.909-.832-2.32-2.355-3.417-3.685-1.048-1.377-2.2-3.095-2.801-4.176-.508-.916-.083-2.197.201-2.672.056-.093.129-.185.211-.276l.824-.761c.012-.012.017-.027.028-.037.008-.008.021-.005.031-.012.744-.628 1.513-1.275 1.619-2.105.124-.976-.483-2.296-1.857-4.029l-.168-.216C11.281 2.249 9.995.6 8.147.872c-.727.108-1.376.356-2.045.776-.007.004-.011.012-.016.016s-.012.004-.017.008l-.932.691c-.009.005-.015.017-.024.025-.007.007-.017.008-.025.015a13.74 13.74 0 0 0-.323.28c-.945.843-2.992 3.289-1.596 7.815.901 2.923 2.76 6.333 5.388 9.883l-.025.021 1.449 1.805.012-.009c2.849 3.371 5.749 5.976 8.407 7.553 1.773 1.053 3.323 1.401 4.597 1.401 1.677 0 2.879-.603 3.481-.995l.379-.253c.043-.029.073-.071.104-.108l.825-.621c.009-.008.015-.019.024-.027.004-.004.011-.003.016-.007.587-.536.993-1.097 1.276-1.763.732-1.705-.579-3.339-1.445-4.42zm.465 4.002c-.22.517-.541.957-1.005 1.384l-1.228.924c-1.112.723-3.489 1.616-6.943-.435-2.657-1.577-5.583-4.244-8.461-7.712l-.779-.984c-2.711-3.595-4.617-7.037-5.517-9.955-1.169-3.793.304-5.828 1.291-6.707.1-.091.2-.175.299-.259l.004-.004.895-.663a4.067 4.067 0 0 1 1.628-.624c1.239-.187 2.247 1.12 2.987 2.069l.173.22C13 6.15 13.148 7.072 13.1 7.448c-.053.417-.688.952-1.248 1.423l-.079.067c-.003.003-.004.007-.007.009l-.012.007-.852.788c-.005.005-.008.012-.013.019s-.016.009-.021.016a3.007 3.007 0 0 0-.337.449c-.479.801-.931 2.457-.217 3.739.623 1.12 1.808 2.889 2.897 4.319 1.139 1.381 2.591 2.949 3.532 3.809.705.644 1.687.86 2.536.86.455 0 .872-.063 1.188-.152.167-.048.339-.117.516-.204.011-.005.016-.015.027-.021.005-.003.013-.001.019-.005l.989-.619c.032-.021.053-.049.08-.076l.012.013c.609-.423 1.304-.919 1.739-.847.385.047 1.26.417 2.799 2.36l.177.223c.749.935 1.776 2.215 1.297 3.333z"/>
    </symbol>
    <symbol id="icon-rounds" viewBox="0 0 29 32">
      <path d="M14.612.072c-1.145 0-2.215.522-3.127 1.376S9.793 3.492 9.142 4.933a18.01 18.01 0 0 0-.391.939 18.142 18.142 0 0 0-1.011-.131 14.909 14.909 0 0 0-1.15-.072c-1.12-.027-2.143.087-3.04.359-1.196.363-2.182 1.028-2.755 2.02s-.656 2.179-.372 3.396c.284 1.217.924 2.488 1.847 3.772.194.269.401.539.619.81-.214.264-.42.533-.618.809C1.348 18.119.708 19.39.424 20.607s-.201 2.404.372 3.396 1.559 1.658 2.755 2.02 2.616.444 4.19.287c.33-.033.667-.077 1.01-.131.122.317.252.631.392.941.651 1.441 1.431 2.631 2.343 3.485s1.982 1.376 3.127 1.376c1.145 0 2.215-.522 3.127-1.376s1.692-2.044 2.343-3.485c.14-.31.27-.624.392-.941a17.9 17.9 0 0 0 1.009.131c1.573.157 2.994.076 4.19-.287s2.182-1.028 2.755-2.02.656-2.179.372-3.396-.924-2.488-1.847-3.772a17.818 17.818 0 0 0-.618-.809c.214-.264.42-.534.619-.809.923-1.284 1.563-2.555 1.847-3.772s.201-2.404-.372-3.396-1.559-1.658-2.755-2.02c-.897-.272-1.92-.385-3.039-.359-.373.009-.757.033-1.15.072-.33.033-.667.077-1.01.131-.122-.317-.252-.63-.391-.939-.651-1.441-1.431-2.631-2.343-3.485S15.76.073 14.615.073zm0 1.274c.764 0 1.513.336 2.256 1.032s1.452 1.749 2.053 3.08c.098.217.191.436.279.657-1.46.325-3.007.823-4.588 1.488a27.09 27.09 0 0 0-4.587-1.488c.09-.226.183-.446.279-.658.601-1.331 1.31-2.384 2.053-3.08s1.492-1.031 2.256-1.031zM6.186 6.941a13.553 13.553 0 0 1 1.428.068c.232.023.47.053.711.088a27.024 27.024 0 0 0-1.005 4.717 27.01 27.01 0 0 0-3.583 3.229 15.801 15.801 0 0 1-.431-.571c-.852-1.185-1.409-2.326-1.641-3.318s-.147-1.808.235-2.469c.382-.662 1.047-1.143 2.021-1.438.639-.194 1.405-.298 2.266-.306zm16.852 0c.861.008 1.626.112 2.266.306.974.295 1.639.776 2.021 1.438s.466 1.478.235 2.469c-.231.991-.789 2.132-1.641 3.318-.14.194-.283.384-.431.571a27.13 27.13 0 0 0-3.582-3.229 27.056 27.056 0 0 0-1.005-4.718 14.236 14.236 0 0 1 1.763-.154c.125-.003.25-.004.375-.003zm-3.404.385c.339 1.053.619 2.214.829 3.457a34.473 34.473 0 0 0-4.237-2.446 24.633 24.633 0 0 1 3.408-1.01zm-10.044 0a24.76 24.76 0 0 1 3.407 1.01 34.599 34.599 0 0 0-4.236 2.445c.209-1.243.49-2.404.829-3.456zm5.022 1.668c1.037.457 2.089.989 3.138 1.595s2.037 1.252 2.951 1.921c.122 1.127.188 2.304.188 3.516s-.066 2.388-.188 3.514a32.84 32.84 0 0 1-6.09 3.516c-1.037-.457-2.09-.989-3.139-1.595s-2.036-1.251-2.95-1.92c-.122-1.127-.188-2.304-.188-3.515s.066-2.39.188-3.517a32.822 32.822 0 0 1 6.088-3.515zm.086 1.917-3.648 2.251 3.648 2.251 3.648-2.251-3.648-2.251zm-7.552 2.668a35.027 35.027 0 0 0 0 4.892 24.586 24.586 0 0 1-2.579-2.446 24.69 24.69 0 0 1 2.579-2.446zm14.932.001a24.77 24.77 0 0 1 2.578 2.445 24.666 24.666 0 0 1-2.578 2.445 34.992 34.992 0 0 0 0-4.891zm-11.85.572v4.445l3.831 2.364v-4.445l-3.831-2.365zm8.936.002-3.83 2.364v4.443l3.83-2.364v-4.443zM3.736 17.007a26.94 26.94 0 0 0 3.583 3.229c.214 1.701.556 3.29 1.005 4.716-.241.035-.478.064-.71.088-1.453.145-2.72.057-3.693-.238s-1.639-.776-2.021-1.438c-.382-.662-.466-1.478-.235-2.469s.789-2.132 1.641-3.318c.139-.193.283-.384.43-.57zm21.752 0c.15.191.295.381.43.57.852 1.185 1.409 2.326 1.641 3.318s.147 1.808-.235 2.469c-.382.662-1.047 1.143-2.021 1.438s-2.241.383-3.693.238a15.414 15.414 0 0 1-.709-.088 27.036 27.036 0 0 0 1.005-4.718 27.057 27.057 0 0 0 3.582-3.228zm-5.025 4.26a24.682 24.682 0 0 1-.829 3.457 24.781 24.781 0 0 1-3.408-1.011 35.272 35.272 0 0 0 4.236-2.446zm-11.702.001a35.248 35.248 0 0 0 4.235 2.446c-1.181.44-2.326.778-3.407 1.01a24.773 24.773 0 0 1-.829-3.456zm5.889.058.046.029.046-.029h-.092zm-.038 3.121a27.128 27.128 0 0 0 4.588 1.488c-.088.222-.181.442-.279.659-.601 1.33-1.31 2.384-2.053 3.08s-1.492 1.032-2.256 1.032c-.764 0-1.513-.336-2.256-1.032s-1.452-1.749-2.053-3.08a16.45 16.45 0 0 1-.279-.659 27.128 27.128 0 0 0 4.588-1.488z"/>
    </symbol>
    <symbol id="icon-crown" viewBox="0 0 32 32">
      <path d="M30.932 9.083c-.276-.25-.609-.41-.963-.463s-.715.004-1.041.163l-6.886 3.36c-.03.018-.064.03-.098.033s-.069 0-.102-.011c-.033-.011-.064-.03-.09-.054s-.048-.054-.064-.088l-4.023-7.95c-.163-.329-.404-.603-.696-.794s-.627-.292-.967-.292c-.34 0-.674.101-.967.292s-.533.465-.696.794l-4.023 7.95c-.016.034-.038.064-.064.088s-.057.043-.09.054a.236.236 0 0 1-.2-.022l-6.886-3.36c-.325-.162-.686-.221-1.04-.169s-.688.212-.964.462-.482.58-.595.953-.13.773-.047 1.155l3.477 16.245c.059.275.168.533.32.76s.345.417.566.56a1.732 1.732 0 0 0 1.486.225 33.332 33.332 0 0 1 19.432-.015c.248.079.508.101.764.066s.503-.127.726-.27.417-.334.571-.562a2.2 2.2 0 0 0 .324-.764l3.464-16.245c.087-.379.074-.778-.038-1.15s-.316-.701-.59-.95zm-.955 1.68L26.5 27.008a.347.347 0 0 1-.123.195.313.313 0 0 1-.218.03 34.819 34.819 0 0 0-20.318 0 .25.25 0 0 1-.214-.031c-.032-.021-.06-.049-.081-.082s-.037-.071-.045-.111L2.024 10.764a.34.34 0 0 1 .057-.256c.026-.036.059-.065.096-.085s.078-.032.119-.033l.109.03 6.9 3.375c.435.216.928.243 1.381.076s.831-.515 1.06-.976l4.023-7.95a.282.282 0 0 1 .095-.115.238.238 0 0 1 .272 0 .284.284 0 0 1 .096.115l4.023 7.95c.229.46.608.809 1.06.976s.946.14 1.381-.076l6.9-3.375a.248.248 0 0 1 .286.045c.04.035.07.082.087.135s.02.11.009.165zm-8.795 11.4c-.023.222-.119.426-.27.575s-.346.233-.548.235h-.082a38.923 38.923 0 0 0-8.564 0c-.215.025-.43-.044-.599-.193s-.277-.365-.301-.602c-.019-.238.047-.475.185-.66s.336-.303.552-.33a38.318 38.318 0 0 1 8.891 0c.213.027.409.143.547.325s.205.415.19.65z"/>
    </symbol>
    <symbol id="icon-insta" viewBox="0 0 35 32">
      <path d="M10.531.206c1.76-.078 2.321-.095 6.803-.095s5.043.019 6.801.095c1.758.077 2.958.347 4.008.738a8.16 8.16 0 0 1 2.922 1.834 7.74 7.74 0 0 1 1.902 2.812c.408 1.011.687 2.167.768 3.857.081 1.697.099 2.237.099 6.552 0 4.316-.019 4.856-.099 6.551-.08 1.69-.36 2.845-.768 3.857a7.772 7.772 0 0 1-1.902 2.815 8.111 8.111 0 0 1-2.922 1.831c-1.05.393-2.25.662-4.005.74-1.761.078-2.322.095-6.804.095s-5.043-.019-6.803-.095c-1.755-.077-2.955-.347-4.005-.74a8.152 8.152 0 0 1-2.924-1.831 7.762 7.762 0 0 1-1.903-2.814c-.407-1.011-.685-2.167-.766-3.857-.081-1.697-.099-2.237-.099-6.552 0-4.316.019-4.856.099-6.549s.36-2.848.766-3.86a7.776 7.776 0 0 1 1.905-2.814A8.122 8.122 0 0 1 6.525.943c1.05-.391 2.25-.66 4.005-.738h.002zm13.47 2.861c-1.74-.077-2.262-.092-6.667-.092s-4.928.016-6.668.092c-1.61.071-2.482.329-3.064.547-.769.289-1.32.631-1.897 1.187a4.917 4.917 0 0 0-1.233 1.827c-.226.56-.495 1.401-.569 2.951-.079 1.676-.096 2.178-.096 6.42s.017 4.745.096 6.421c.074 1.55.342 2.391.569 2.951a4.925 4.925 0 0 0 1.233 1.827 5.143 5.143 0 0 0 1.897 1.187c.582.218 1.455.477 3.064.547 1.74.077 2.261.092 6.668.092s4.927-.016 6.667-.092c1.61-.071 2.483-.329 3.065-.547.769-.289 1.32-.631 1.897-1.187a4.925 4.925 0 0 0 1.233-1.827c.227-.56.495-1.401.568-2.951.08-1.676.096-2.178.096-6.421s-.017-4.745-.096-6.421c-.073-1.55-.342-2.391-.568-2.951A4.912 4.912 0 0 0 28.963 4.8a5.143 5.143 0 0 0-1.897-1.187c-.582-.218-1.455-.477-3.065-.547zm-8.775 17.831c1.177.472 2.488.535 3.708.18s2.275-1.108 2.983-2.128c.708-1.021 1.027-2.247.901-3.468s-.689-2.363-1.592-3.23a5.544 5.544 0 0 0-2.038-1.242 5.7 5.7 0 0 0-4.684.445 5.428 5.428 0 0 0-1.747 1.601c-.452.652-.749 1.392-.868 2.167s-.059 1.566.177 2.316c.236.75.642 1.44 1.188 2.021s1.22 1.038 1.971 1.338zm-3.89-10.673a8.51 8.51 0 0 1 2.751-1.77 8.775 8.775 0 0 1 6.492 0c1.029.41 1.964 1.012 2.751 1.77s1.412 1.659 1.839 2.65a7.889 7.889 0 0 1 0 6.25 8.137 8.137 0 0 1-1.839 2.649c-1.59 1.532-3.748 2.392-5.997 2.392s-4.407-.86-5.997-2.392c-1.591-1.532-2.484-3.609-2.484-5.775s.894-4.243 2.484-5.775zm16.359-1.176c.195-.177.351-.39.459-.627a1.875 1.875 0 0 0-.417-2.144 2.015 2.015 0 0 0-.664-.424 2.069 2.069 0 0 0-2.213.464c-.358.365-.554.851-.547 1.353s.218.982.587 1.337.867.558 1.389.565 1.026-.181 1.405-.526z"/>
    </symbol>
    <symbol id="icon-Arrow2" viewBox="0 0 32 32">
      <path d="M0 16c0 8.837 7.163 16 16 16s16-7.163 16-16c0-8.837-7.163-16-16-16s-16 7.163-16 16z"></path>
      <path stroke-linejoin="miter" stroke-linecap="butt" stroke-miterlimit="4" stroke-width="0.5587" d="M0.279 16c0 8.682 7.038 15.721 15.721 15.721s15.721-7.038 15.721-15.721c0-8.682-7.038-15.721-15.721-15.721s-15.721 7.038-15.721 15.721z"></path>
      <path d="M9.841 16.514c-0.284-0.284-0.284-0.745 0-1.028l4.628-4.628c0.284-0.284 0.745-0.284 1.029 0s0.284 0.745 0 1.028l-4.114 4.114 4.114 4.114c0.284 0.284 0.284 0.744 0 1.029s-0.745 0.284-1.029 0l-4.628-4.628zM22.545 16.727h-12.19v-1.455h12.19v1.455z"></path>
    </symbol>
    <symbol id="icon-iconClose" viewBox="0 0 32 32">
      <path stroke-linejoin="miter" stroke-linecap="round" stroke-miterlimit="4" stroke-width="2" d="M8 8l8 8 8-8"></path>
      <path stroke-linejoin="miter" stroke-linecap="round" stroke-miterlimit="4" stroke-width="2" d="M8 24l8-8 8 8"></path>
    </symbol>
    <symbol id="icon-menu" viewBox="0 0 32 32">
      <path d="M29.333 24.007c0 0.733-0.595 1.327-1.327 1.327h-10.68c-0.352 0-0.689-0.14-0.938-0.389s-0.389-0.586-0.389-0.938c0-0.352 0.14-0.689 0.389-0.938s0.586-0.389 0.938-0.389h10.68c0.733 0 1.327 0.593 1.327 1.327zM29.333 16c0 0.733-0.595 1.327-1.327 1.327h-24.013c-0.352 0-0.689-0.14-0.938-0.389s-0.389-0.586-0.389-0.938c0-0.352 0.14-0.689 0.389-0.938s0.586-0.389 0.938-0.389h24.013c0.733 0 1.327 0.595 1.327 1.327zM28.007 9.32c0.352 0 0.689-0.14 0.938-0.389s0.389-0.586 0.389-0.938c0-0.352-0.14-0.689-0.389-0.938s-0.586-0.389-0.938-0.389h-16.013c-0.174 0-0.347 0.034-0.508 0.101s-0.307 0.164-0.43 0.288c-0.123 0.123-0.221 0.269-0.288 0.43s-0.101 0.333-0.101 0.508c0 0.174 0.034 0.347 0.101 0.508s0.164 0.307 0.288 0.43c0.123 0.123 0.269 0.221 0.43 0.288s0.333 0.101 0.508 0.101h16.013z"></path>
    </symbol>
    <symbol id="icon-instagram" viewBox="0 0 32 32">
      <path d="M16 10.25c-1.137 0-2.249 0.337-3.194 0.969s-1.683 1.53-2.118 2.581c-0.435 1.051-0.549 2.207-0.327 3.322s0.77 2.14 1.574 2.944c0.804 0.804 1.829 1.352 2.944 1.574s2.272 0.108 3.322-0.327c1.051-0.435 1.949-1.172 2.581-2.118s0.969-2.057 0.969-3.194c0-1.525-0.606-2.987-1.684-4.066s-2.541-1.684-4.066-1.684zM16 20.25c-0.841 0-1.662-0.249-2.361-0.716s-1.244-1.131-1.565-1.907-0.406-1.631-0.242-2.456c0.164-0.825 0.569-1.582 1.163-2.176s1.352-0.999 2.176-1.163c0.824-0.164 1.679-0.080 2.456 0.242s1.44 0.866 1.907 1.565c0.467 0.699 0.716 1.521 0.716 2.361-0.003 1.126-0.452 2.205-1.248 3.002s-1.875 1.245-3.002 1.248zM21.5 3.75h-11c-1.79 0-3.507 0.711-4.773 1.977s-1.977 2.983-1.977 4.773v11c0 1.79 0.711 3.507 1.977 4.773s2.983 1.977 4.773 1.977h11c1.79 0 3.507-0.711 4.773-1.977s1.977-2.983 1.977-4.773v-11c0-1.79-0.711-3.507-1.977-4.773s-2.983-1.977-4.773-1.977zM26.75 21.5c0 1.392-0.553 2.728-1.538 3.712s-2.32 1.538-3.712 1.538h-11c-1.392 0-2.728-0.553-3.712-1.538s-1.538-2.32-1.538-3.712v-11c0-1.392 0.553-2.728 1.538-3.712s2.32-1.538 3.712-1.538h11c1.392 0 2.728 0.553 3.712 1.538s1.538 2.32 1.538 3.712v11zM23.75 9.5c0 0.247-0.073 0.489-0.211 0.694s-0.332 0.366-0.561 0.46c-0.229 0.095-0.48 0.119-0.722 0.071s-0.465-0.167-0.64-0.342-0.294-0.398-0.342-0.64c-0.048-0.242-0.023-0.494 0.071-0.722s0.255-0.424 0.46-0.561c0.206-0.137 0.447-0.211 0.695-0.211 0.331 0 0.649 0.132 0.884 0.366s0.366 0.552 0.366 0.884z"></path>
    </symbol>
    <symbol id="icon-telephone" viewBox="0 0 32 32">
      <path d="M27.655 22.957l-0.173-0.216c-1.372-1.735-2.519-2.637-3.503-2.756-0.851-0.116-1.673 0.472-2.548 1.077l-0.935 0.584c-0.112 0.056-0.223 0.101-0.327 0.132-0.547 0.155-1.927 0.245-2.708-0.469-0.909-0.832-2.32-2.355-3.417-3.685-1.048-1.377-2.2-3.095-2.801-4.176-0.508-0.916-0.083-2.197 0.201-2.672 0.056-0.093 0.129-0.185 0.211-0.276l0.824-0.761c0.012-0.012 0.017-0.027 0.028-0.037 0.008-0.008 0.021-0.005 0.031-0.012 0.744-0.628 1.513-1.275 1.619-2.105 0.124-0.976-0.483-2.296-1.857-4.029l-0.168-0.216c-0.851-1.091-2.137-2.74-3.985-2.468-0.727 0.108-1.376 0.356-2.045 0.776-0.007 0.004-0.011 0.012-0.016 0.016s-0.012 0.004-0.017 0.008l-0.932 0.691c-0.009 0.005-0.015 0.017-0.024 0.025-0.007 0.007-0.017 0.008-0.025 0.015-0.108 0.091-0.216 0.184-0.323 0.28-0.945 0.843-2.992 3.289-1.596 7.815 0.901 2.923 2.76 6.333 5.388 9.883l-0.025 0.021 1.449 1.805 0.012-0.009c2.849 3.371 5.749 5.976 8.407 7.553 1.773 1.053 3.323 1.401 4.597 1.401 1.677 0 2.879-0.603 3.481-0.995l0.379-0.253c0.043-0.029 0.073-0.071 0.104-0.108l0.825-0.621c0.009-0.008 0.015-0.019 0.024-0.027 0.004-0.004 0.011-0.003 0.016-0.007 0.587-0.536 0.993-1.097 1.276-1.763 0.732-1.705-0.579-3.339-1.445-4.42zM28.12 26.959c-0.22 0.517-0.541 0.957-1.005 1.384l-1.228 0.924c-1.112 0.723-3.489 1.616-6.943-0.435-2.657-1.577-5.583-4.244-8.461-7.712l-0.779-0.984c-2.711-3.595-4.617-7.037-5.517-9.955-1.169-3.793 0.304-5.828 1.291-6.707 0.1-0.091 0.2-0.175 0.299-0.259l0.004-0.004 0.895-0.663c0.544-0.344 1.048-0.536 1.628-0.624 1.239-0.187 2.247 1.12 2.987 2.069l0.173 0.22c1.536 1.937 1.684 2.859 1.636 3.235-0.053 0.417-0.688 0.952-1.248 1.423l-0.079 0.067c-0.003 0.003-0.004 0.007-0.007 0.009-0.004 0.003-0.008 0.004-0.012 0.007l-0.852 0.788c-0.005 0.005-0.008 0.012-0.013 0.019s-0.016 0.009-0.021 0.016c-0.132 0.148-0.245 0.296-0.337 0.449-0.479 0.801-0.931 2.457-0.217 3.739 0.623 1.12 1.808 2.889 2.897 4.319 1.139 1.381 2.591 2.949 3.532 3.809 0.705 0.644 1.687 0.86 2.536 0.86 0.455 0 0.872-0.063 1.188-0.152 0.167-0.048 0.339-0.117 0.516-0.204 0.011-0.005 0.016-0.015 0.027-0.021 0.005-0.003 0.013-0.001 0.019-0.005l0.989-0.619c0.032-0.021 0.053-0.049 0.080-0.076l0.012 0.013c0.609-0.423 1.304-0.919 1.739-0.847 0.385 0.047 1.26 0.417 2.799 2.36l0.177 0.223c0.749 0.935 1.776 2.215 1.297 3.333z"></path>
    </symbol>
    <symbol id="icon-facebook" viewBox="0 0 32 32">
      <path d="M23.987 2.128c-1.345-0.143-2.697-0.212-4.049-0.208-4.484 0-7.271 2.856-7.271 7.453v3.121h-3.767c-0.177 0-0.346 0.070-0.471 0.195s-0.195 0.295-0.195 0.471v5.133c0 0.177 0.070 0.346 0.195 0.471s0.295 0.195 0.471 0.195h3.767v10.293c0 0.177 0.070 0.346 0.195 0.471s0.295 0.195 0.471 0.195h5.304c0.177 0 0.346-0.070 0.471-0.195s0.195-0.295 0.195-0.471v-10.293h3.755c0.162 0 0.318-0.059 0.44-0.165s0.2-0.254 0.221-0.415l0.663-5.133c0.012-0.094 0.005-0.19-0.023-0.28s-0.074-0.175-0.137-0.246c-0.063-0.071-0.14-0.128-0.226-0.168s-0.18-0.059-0.275-0.059h-4.417v-2.612c0-1.293 0.26-1.833 1.877-1.833h2.719c0.177 0 0.346-0.070 0.471-0.195s0.195-0.295 0.195-0.471v-4.593c0-0.162-0.059-0.318-0.165-0.44s-0.254-0.2-0.415-0.221zM23.233 6.715l-2.053 0.001c-2.876 0-3.209 1.808-3.209 3.167v3.28c0 0.177 0.070 0.346 0.195 0.471s0.294 0.195 0.471 0.196h4.328l-0.492 3.8h-3.835c-0.177 0-0.346 0.070-0.471 0.195s-0.195 0.295-0.195 0.471v10.291h-3.971v-10.291c0-0.177-0.070-0.346-0.195-0.471s-0.295-0.195-0.471-0.195h-3.765v-3.8h3.765c0.177 0 0.346-0.070 0.471-0.195s0.195-0.295 0.195-0.471v-3.789c0-3.832 2.22-6.12 5.937-6.12 1.345 0 2.56 0.073 3.296 0.137v3.324z"></path>
    </symbol>
    <symbol id="icon-Star" viewBox="0 0 32 32">
      <path d="M6.693 0l10.657 10.184 14.321-3.491-10.184 10.657 3.491 14.321-10.657-10.184-14.321 3.491 10.184-10.657-3.491-14.321z"></path>
    </symbol>
  </defs>
</svg>
