<svg width="1440" height="1515" viewBox="0 0 1440 1515" fill="none" xmlns="http://www.w3.org/2000/svg">
<g filter="url(#filter0_d_64_137)">
<path fill-rule="evenodd" clip-rule="evenodd" d="M1015.22 1337.67C843.995 1420.41 681.707 1522.18 492.376 1504.43C294.908 1485.92 120.319 1385.32 -15.7281 1241.03C-170.733 1076.62 -313.597 883.154 -306.334 657.304C-298.462 412.497 -193.856 145.531 23.1542 31.9096C227.164 -74.905 448.972 123.559 678.526 141.656C938.036 162.114 1224.83 -17.6965 1429.76 142.797C1655.09 319.273 1777.41 658.366 1683.59 928.799C1594.61 1185.29 1259.68 1219.54 1015.22 1337.67Z" fill="url(#paint0_linear_64_137)" fill-opacity="0.2" shape-rendering="crispEdges"/>
<path fill-rule="evenodd" clip-rule="evenodd" d="M1015.22 1337.67C843.995 1420.41 681.707 1522.18 492.376 1504.43C294.908 1485.92 120.319 1385.32 -15.7281 1241.03C-170.733 1076.62 -313.597 883.154 -306.334 657.304C-298.462 412.497 -193.856 145.531 23.1542 31.9096C227.164 -74.905 448.972 123.559 678.526 141.656C938.036 162.114 1224.83 -17.6965 1429.76 142.797C1655.09 319.273 1777.41 658.366 1683.59 928.799C1594.61 1185.29 1259.68 1219.54 1015.22 1337.67Z" stroke="black" shape-rendering="crispEdges"/>
</g>
<defs>
<filter id="filter0_d_64_137" x="-311.1" y="0.00732422" width="2031" height="1514.96" filterUnits="userSpaceOnUse" color-interpolation-filters="sRGB">
<feFlood flood-opacity="0" result="BackgroundImageFix"/>
<feColorMatrix in="SourceAlpha" type="matrix" values="0 0 0 0 0 0 0 0 0 0 0 0 0 0 0 0 0 0 127 0" result="hardAlpha"/>
<feOffset dy="4"/>
<feGaussianBlur stdDeviation="2"/>
<feComposite in2="hardAlpha" operator="out"/>
<feColorMatrix type="matrix" values="0 0 0 0 0 0 0 0 0 0 0 0 0 0 0 0 0 0 0.25 0"/>
<feBlend mode="normal" in2="BackgroundImageFix" result="effect1_dropShadow_64_137"/>
<feBlend mode="normal" in="SourceGraphic" in2="effect1_dropShadow_64_137" result="shape"/>
</filter>
<linearGradient id="paint0_linear_64_137" x1="851" y1="-22.9997" x2="851" y2="1197.5" gradientUnits="userSpaceOnUse">
<stop offset="0.334676" stop-color="#2B7FFF"/>
<stop offset="0.634564" stop-color="#2B7FFF" stop-opacity="0"/>
<stop offset="0.894715" stop-color="#2B7FFF" stop-opacity="0"/>
</linearGradient>
</defs>
</svg>
