<svg width="3200" height="2834" viewBox="0 0 3200 2834" fill="none" xmlns="http://www.w3.org/2000/svg">
<path d="M1181.91 171.567C1080.41 237.244 883.579 399.567 751.412 502.567C713.245 539.734 616.512 633.267 534.912 710.067C432.912 806.067 256.479 980.663 169.412 1125.07C46.412 1329.07 36.412 1530.57 17.912 1589.57C-0.588012 1648.57 6.5129 1989.25 69.9117 2239.57C127.911 2468.57 304.575 2658.54 407.912 2728.57C544.412 2821.07 750.912 2830.61 861.412 2823.07C1007.91 2813.07 1506.91 2750.57 1578.41 2753.57C1649.91 2756.57 2090.41 2798.07 2167.91 2798.07C2245.41 2798.07 2523.41 2780.57 2747.41 2595.07C2979.21 2403.11 3076.91 2168.57 3116.91 2088.07C3156.91 2007.57 3203.41 1741.07 3187.91 1580.07C3172.41 1419.07 3000.91 1170.57 2948.41 1108.57C2895.91 1046.57 2276.41 292.567 2020.91 121.567C1890.59 34.3449 1670.91 1.06735 1565.91 10.5673C1460.91 20.0673 1268.91 115.273 1181.91 171.567Z" stroke="#AA3636" stroke-width="17"/>
</svg>
