<svg width="3200" height="2835" viewBox="0 0 3200 2835" fill="none" xmlns="http://www.w3.org/2000/svg">
<path d="M1182 172C1080.5 237.676 883.667 400 751.5 503C713.333 540.167 616.6 633.7 535 710.5C433 806.5 256.567 981.096 169.5 1125.5C46.4999 1329.5 36.4999 1531 17.9999 1590C-0.500121 1649 6.60079 1989.68 69.9996 2240C127.999 2469 304.663 2658.97 408 2729C544.5 2821.5 751 2831.04 861.5 2823.5C1008 2813.5 1507 2751 1578.5 2754C1650 2757 2090.5 2798.5 2168 2798.5C2245.5 2798.5 2523.5 2781 2747.5 2595.5C2979.29 2403.55 3077 2169 3117 2088.5C3157 2008 3203.5 1741.5 3188 1580.5C3172.5 1419.5 3001 1171 2948.5 1109C2896 1047 2276.5 293 2021 122C1890.68 34.7775 1671 1.49996 1566 11C1461 20.5 1269 115.706 1182 172Z" stroke="#AA3636" stroke-width="17"/>
</svg>
